HIERARCHY
ROOT Hips
{
  OFFSET -2.9740628571428576 95.22824285714285 -3.405862857142857
  CHANNELS 6 Xposition Zposition Yposition Zrotation Xrotation Yrotation
  JOINT LeftUpLeg
  {
    OFFSET 8.64259 1.9539799999999998 -2.3883499999999995
    CHANNELS 3 Zrotation Xrotation Yrotation
    JOINT LeftLeg
    {
      OFFSET 43.770199999999996 0.0 0.0
      CHANNELS 3 Zrotation Xrotation Yrotation
      JOINT LeftFoot
      {
        OFFSET 40.62380000000001 0.0 0.0
        CHANNELS 3 Zrotation Xrotation Yrotation
        JOINT LeftToeBase
        {
          OFFSET 12.724199999999998 0.0 0.0
          CHANNELS 3 Zrotation Xrotation Yrotation
          End Site
          {
            OFFSET 0.0 0.0 0.0
          }
        }
      }
    }
  }
  JOINT RightUpLeg
  {
    OFFSET -8.2249 1.9539799999999998 -2.59336
    CHANNELS 3 Zrotation Xrotation Yrotation
    JOINT RightLeg
    {
      OFFSET 43.56529999999999 0.0 0.0
      CHANNELS 3 Zrotation Xrotation Yrotation
      JOINT RightFoot
      {
        OFFSET 40.62380000000001 0.0 0.0
        CHANNELS 3 Zrotation Xrotation Yrotation
        JOINT RightToeBase
        {
          OFFSET 12.724199999999998 0.0 0.0
          CHANNELS 3 Zrotation Xrotation Yrotation
          End Site
          {
            OFFSET 0.0 0.0 0.0
          }
        }
      }
    }
  }
  JOINT Spine
  {
    OFFSET 0.16583 0.8771399999999999 6.61349
    CHANNELS 3 Zrotation Xrotation Yrotation
    JOINT Spine1
    {
      OFFSET 7.389628571428571 2e-05 0.0
      CHANNELS 3 Zrotation Xrotation Yrotation
      JOINT Spine2
      {
        OFFSET 11.944500000000001 1e-05 0.0
        CHANNELS 3 Zrotation Xrotation Yrotation
        JOINT Spine3
        {
          OFFSET 14.725400000000004 4e-05 0.0
          CHANNELS 3 Zrotation Xrotation Yrotation
          JOINT Spine4
          {
            OFFSET 10.9679 0.0 0.0
            CHANNELS 3 Zrotation Xrotation Yrotation
            JOINT RightShoulder
            {
              OFFSET 2.46616 -1.6653 3.69651
              CHANNELS 3 Zrotation Xrotation Yrotation
              JOINT RightArm
              {
                OFFSET 13.001199999999999 0.0 0.0
                CHANNELS 3 Zrotation Xrotation Yrotation
                JOINT RightForeArm
                {
                  OFFSET 28.784799999999997 2e-05 0.0
                  CHANNELS 3 Zrotation Xrotation Yrotation
                  JOINT RightHand
                  {
                    OFFSET 26.568800000000003 2e-05 0.0
                    CHANNELS 3 Zrotation Xrotation Yrotation
                    JOINT RightHandMiddle1
                    {
                      OFFSET 8.03675 -0.8865800000000001 0.7278700000000001
                      CHANNELS 3 Zrotation Xrotation Yrotation
                      JOINT RightHandMiddle2
                      {
                        OFFSET 2.7883299999999993 0.0 0.0
                        CHANNELS 3 Zrotation Xrotation Yrotation
                        JOINT RightHandMiddle3
                        {
                          OFFSET 2.4115500000000005 0.0 0.0
                          CHANNELS 3 Zrotation Xrotation Yrotation
                          End Site
                          {
                            OFFSET 0.0 0.0 0.0
                          }
                        }
                      }
                    }
                    JOINT RightHandRing1
                    {
                      OFFSET 7.979660000000002 -0.8867700000000002 -1.00486
                      CHANNELS 3 Zrotation Xrotation Yrotation
                      JOINT RightHandRing2
                      {
                        OFFSET 2.8636799999999996 0.0 0.0
                        CHANNELS 3 Zrotation Xrotation Yrotation
                        JOINT RightHandRing3
                        {
                          OFFSET 2.11079 0.0 0.0
                          CHANNELS 3 Zrotation Xrotation Yrotation
                          End Site
                          {
                            OFFSET 0.0 0.0 0.0
                          }
                        }
                      }
                    }
                    JOINT RightHandPinky1
                    {
                      OFFSET 8.03707 -0.8875299999999999 -2.6069600000000004
                      CHANNELS 3 Zrotation Xrotation Yrotation
                      JOINT RightHandPinky2
                      {
                        OFFSET 1.8462757142857142 0.0 0.0
                        CHANNELS 3 Zrotation Xrotation Yrotation
                        JOINT RightHandPinky3
                        {
                          OFFSET 1.8843400000000001 0.0 0.0
                          CHANNELS 3 Zrotation Xrotation Yrotation
                          End Site
                          {
                            OFFSET 0.0 0.0 0.0
                          }
                        }
                      }
                    }
                    JOINT RightHandIndex1
                    {
                      OFFSET 7.92262 -0.8855000000000002 2.31175
                      CHANNELS 3 Zrotation Xrotation Yrotation
                      JOINT RightHandIndex2
                      {
                        OFFSET 2.63761 0.0 0.0
                        CHANNELS 3 Zrotation Xrotation Yrotation
                        JOINT RightHandIndex3
                        {
                          OFFSET 2.16656 0.0 0.0
                          CHANNELS 3 Zrotation Xrotation Yrotation
                          End Site
                          {
                            OFFSET 0.0 0.0 0.0
                          }
                        }
                      }
                    }
                    JOINT RightHandThumb1
                    {
                      OFFSET 3.4769 0.059800000000000006 2.8878899999999996
                      CHANNELS 3 Zrotation Xrotation Yrotation
                      JOINT RightHandThumb2
                      {
                        OFFSET 2.7768599999999997 0.00010000000000000002 -2e-05
                        CHANNELS 3 Zrotation Xrotation Yrotation
                        JOINT RightHandThumb3
                        {
                          OFFSET 2.420578571428571 -9e-05 0.0
                          CHANNELS 3 Zrotation Xrotation Yrotation
                          End Site
                          {
                            OFFSET 0.0 0.0 0.0
                          }
                        }
                      }
                    }
                  }
                }
              }
            }
            JOINT LeftShoulder
            {
              OFFSET 2.3803400000000003 -1.29275 -3.7523014285714282
              CHANNELS 3 Zrotation Xrotation Yrotation
              JOINT LeftArm
              {
                OFFSET 16.3182 5.9999999999999995e-05 0.0
                CHANNELS 3 Zrotation Xrotation Yrotation
                JOINT LeftForeArm
                {
                  OFFSET 27.090100000000003 0.0 0.0
                  CHANNELS 3 Zrotation Xrotation Yrotation
                  JOINT LeftHand
                  {
                    OFFSET 24.545099999999998 2e-05 0.0
                    CHANNELS 3 Zrotation Xrotation Yrotation
                    JOINT LeftHandMiddle1
                    {
                      OFFSET 9.218019999999997 0.66582 0.5455300000000002
                      CHANNELS 3 Zrotation Xrotation Yrotation
                      JOINT LeftHandMiddle2
                      {
                        OFFSET 2.66255 0.0 0.0
                        CHANNELS 3 Zrotation Xrotation Yrotation
                        JOINT LeftHandMiddle3
                        {
                          OFFSET 2.2804 0.0 0.0
                          CHANNELS 3 Zrotation Xrotation Yrotation
                          End Site
                          {
                            OFFSET 0.0 0.0 0.0
                          }
                        }
                      }
                    }
                    JOINT LeftHandRing1
                    {
                      OFFSET 9.247749999999998 0.66519 -1.1266999999999998
                      CHANNELS 3 Zrotation Xrotation Yrotation
                      JOINT LeftHandRing2
                      {
                        OFFSET 2.4704099999999998 0.0 -2e-05
                        CHANNELS 3 Zrotation Xrotation Yrotation
                        JOINT LeftHandRing3
                        {
                          OFFSET 2.2054000000000005 0.0 0.0
                          CHANNELS 3 Zrotation Xrotation Yrotation
                          End Site
                          {
                            OFFSET 0.0 0.0 0.0
                          }
                        }
                      }
                    }
                    JOINT LeftHandPinky1
                    {
                      OFFSET 9.35383857142857 0.66301 -2.7233200000000006
                      CHANNELS 3 Zrotation Xrotation Yrotation
                      JOINT LeftHandPinky2
                      {
                        OFFSET 1.63407 0.0 0.0
                        CHANNELS 3 Zrotation Xrotation Yrotation
                        JOINT LeftHandPinky3
                        {
                          OFFSET 1.71176 0.0 0.0
                          CHANNELS 3 Zrotation Xrotation Yrotation
                          End Site
                          {
                            OFFSET 0.0 0.0 0.0
                          }
                        }
                      }
                    }
                    JOINT LeftHandIndex1
                    {
                      OFFSET 8.731608571428572 0.6758999999999998 2.0680099999999997
                      CHANNELS 3 Zrotation Xrotation Yrotation
                      JOINT LeftHandIndex2
                      {
                        OFFSET 2.6668899999999995 0.0 0.0
                        CHANNELS 3 Zrotation Xrotation Yrotation
                        JOINT LeftHandIndex3
                        {
                          OFFSET 2.12946 0.0 2e-05
                          CHANNELS 3 Zrotation Xrotation Yrotation
                          End Site
                          {
                            OFFSET 0.0 0.0 0.0
                          }
                        }
                      }
                    }
                    JOINT LeftHandThumb1
                    {
                      OFFSET 4.967354285714285 -0.62265 3.3958599999999994
                      CHANNELS 3 Zrotation Xrotation Yrotation
                      JOINT LeftHandThumb2
                      {
                        OFFSET 2.15386 2e-05 0.0
                        CHANNELS 3 Zrotation Xrotation Yrotation
                        JOINT LeftHandThumb3
                        {
                          OFFSET 2.1951099999999997 -2.9999999999999997e-05 2e-05
                          CHANNELS 3 Zrotation Xrotation Yrotation
                          End Site
                          {
                            OFFSET 0.0 0.0 0.0
                          }
                        }
                      }
                    }
                  }
                }
              }
            }
            JOINT Neck
            {
              OFFSET 5.0226 -0.026629999999999994 0.0
              CHANNELS 3 Zrotation Xrotation Yrotation
              JOINT Head
              {
                OFFSET 6.693637142857143 2.9999999999999997e-05 0.0
                CHANNELS 3 Zrotation Xrotation Yrotation
                End Site
                {
                  OFFSET 0.0 0.0 0.0
                }
              }
            }
          }
        }
      }
    }
  }
}
MOTION
Frames: 4
Frame Time: 0.03333333
0.0 4.440892098500626e-16 97.42260000000002 146.23 -89.9914 146.352 -170.985 2.9302199999999985 90.3384 -9.699949999999998 8.6048 3.3929 63.7882 0.559707 0.257828 28.7808 5.2385e-06 6.25729e-06 179.433 2.04289 89.18 -7.9109300000000005 -0.44522300000000037 -0.0310454 62.8951 -1.2109299999999998 -0.6111040000000001 28.7808 1.426e-05 2.76483e-05 0.009921320000000011 6.3402199999999995 -90.1251 14.1935 -2.3651100000077196e-05 4.468169999993776e-06 2.52256 -2.180229999998451e-05 -4.9689500000171805e-06 -20.0126 -3.0191799999967905e-05 -0.00369261999999998 5.222789999992372e-05 -2.909449999999314e-05 -0.0036877499999999896 100.882 -18.867 -85.3132 2.4903399999999998 40.5186 -28.4239 0.610303 0.35789099999999996 -5.659320000000001 -5.37983 -0.3200129999999999 -0.016241700000000137 -89.4039 88.9709 89.0936 -0.060487400000000004 5.0253e-06 -7.258300000000001e-07 -0.0639215 2.5221e-06 -1.8519799999999999e-06 -89.3948 88.98100000000001 89.0846 -1.1574200000000001 -3.1712599999999998e-06 -2.17792e-07 2.576 -8.750089999999997e-07 -2.23622e-06 -88.8572 89.3579 88.54700000000001 -1.14578 2.42327e-06 0.000146885 1.1457700000000002 4.653870000000005e-07 -1.8543900000000001e-06 -89.4226 88.9487 89.1123 0.40928400000000004 9.27881e-06 0.0006791130000000001 -0.636602 -4.645730000000001e-06 -1.9811699999999998e-06 104.36399999999999 40.5023 -88.8246 -7.66903 0.186178 -1.3504399999999999 -11.2634 2.6253599999999975e-07 6.32082e-05 -79.1709 -21.9281 93.9367 5.525119999999998 -41.3455 -21.7145 3.06104 43.2991 -1.982280000000003 -1.0772599999999999 -0.06068319999999994 -1.9994499999999995 -91.1871 -87.8289 -89.9986 3.4088800000000004 -6.409830000000001e-06 0.00335005 -0.9548610000000001 -7.571189999999999e-06 -8.12769e-07 -91.1871 -89.4015 -89.9985 2.85637 -6.902189999999999e-06 0.0027684000000000003 -3.1684400000000004 4.57796e-06 9.70622e-07 88.8084 -89.7171 89.9969 2.54481 3.91696e-06 0.00243115 -2.54482 -9.43962e-07 1.3006599999999998e-06 -91.1883 -86.1973 -89.9998 6.1310400000000005 5.97828e-06 0.00656447 -2.04542 -8.5897e-06 -9.453839999999999e-07 -101.949 -40.7242 -90.0694 10.0172 2.68029e-06 -1.0966e-06 -2.6697599999999997 -3.2205e-06 -1.5019499999999999e-06 1.7398100000000003 -0.0003216109999999439 0.005120279999999866 -7.40828 5.952989999991054e-05 -0.00697008
-0.006730000000001013 0.015499999999999847 97.38759999999999 171.641 -89.8858 171.738 -170.97299999999998 2.7835199999999993 90.3379 -9.66412 8.55555 3.35731 63.9374 0.5847430000000001 0.276814 28.7808 5.2385e-06 6.25729e-06 179.416 2.2233300000000007 89.1295 -8.55469 -0.4543280000000003 -0.032499200000000006 63.297 -1.1640400000000004 -0.5883439999999998 28.7808 1.426e-05 2.76483e-05 0.0106348 6.34079 -90.1341 14.1924 0.0005158130000000316 -0.0005251840000000119 2.52144 0.0005093560000000164 -0.0005739780000000305 -20.0137 0.0005828930000000287 -0.00369261999999998 -0.001070700000000091 0.0005842860000000449 -0.0036877499999999896 100.76799999999999 -18.8561 -85.368 2.3817500000000003 40.5099 -28.2825 0.6411389999999999 0.35786399999999996 -5.704030000000003 -5.37983 -0.3200129999999999 -0.016241700000000137 -89.4039 88.9709 89.0936 -0.060487400000000004 5.0253e-06 -7.258300000000001e-07 -0.0639215 2.5221e-06 -1.8519799999999999e-06 -89.3948 88.98100000000001 89.0846 -1.1574200000000001 -3.1712599999999998e-06 -2.17792e-07 2.576 -8.750089999999997e-07 -2.23622e-06 -88.8572 89.3579 88.54700000000001 -1.14578 2.42327e-06 0.000146885 1.1457700000000002 4.653870000000005e-07 -1.8543900000000001e-06 -89.4226 88.9487 89.1123 0.40928400000000004 9.27881e-06 0.0006791130000000001 -0.636602 -4.645730000000001e-06 -1.9811699999999998e-06 104.36399999999999 40.5023 -88.8246 -7.66903 0.186178 -1.3504399999999999 -11.2634 2.6253599999999975e-07 6.32082e-05 -79.3059 -21.8582 93.8328 5.608900000000002 -41.33209999999999 -21.5033 2.98496 43.05460000000001 -1.9207999999999998 -0.9480589999999998 -0.06067929999999988 -2.1019500000000004 -91.1871 -87.8289 -89.9986 3.4088800000000004 -6.409830000000001e-06 0.00335005 -0.9548610000000001 -7.571189999999999e-06 -8.12769e-07 -91.1871 -89.4015 -89.9985 2.85637 -6.902189999999999e-06 0.0027684000000000003 -3.1684400000000004 4.57796e-06 9.70622e-07 88.8084 -89.7171 89.9969 2.54481 3.91696e-06 0.00243115 -2.54482 -9.43962e-07 1.3006599999999998e-06 -91.1883 -86.1973 -89.9998 6.1310400000000005 5.97828e-06 0.00656447 -2.04542 -8.5897e-06 -9.453839999999999e-07 -101.949 -40.7242 -90.0694 10.0172 2.68029e-06 -1.0966e-06 -2.6697599999999997 -3.2205e-06 -1.5019499999999999e-06 1.52921 -0.00719922999999989 0.07689970000000024 -7.35762 -0.0012363099999999072 -0.109183
-0.017120000000002022 0.019200000000001438 97.3987 -171.438 -89.8918 -171.33700000000002 -170.96099999999998 2.80593 90.3529 -9.687360000000002 8.47315 3.32594 63.8786 0.5508640000000001 0.255992 28.7808 5.2385e-06 6.25729e-06 179.41400000000002 0.8019789999999993 89.1264 -5.660879999999999 -0.2836090000000002 -0.019860800000000012 62.427 -0.5887829999999998 -0.24044299999999996 28.7808 1.426e-05 2.76483e-05 0.018442399999999998 6.3547400000000005 -90.1371 14.1645 0.014421200000000023 -0.00857777999999998 2.4935099999999997 0.014031499999999975 -0.009215670000000009 -20.0416 0.016329099999999985 -0.0038071000000000077 -0.028986999999999874 0.016333700000000007 -0.0038034800000000257 100.875 -18.8702 -85.3547 2.3568599999999975 40.5056 -28.2478 0.6459639999999998 0.3578469999999999 -5.729689999999998 -5.37983 -0.3200129999999999 -0.016241700000000137 -89.4039 88.9709 89.0936 -0.060487400000000004 5.0253e-06 -7.258300000000001e-07 -0.0639215 2.5221e-06 -1.8519799999999999e-06 -89.3948 88.98100000000001 89.0846 -1.1574200000000001 -3.1712599999999998e-06 -2.17792e-07 2.576 -8.750089999999997e-07 -2.23622e-06 -88.8572 89.3579 88.54700000000001 -1.14578 2.42327e-06 0.000146885 1.1457700000000002 4.653870000000005e-07 -1.8543900000000001e-06 -89.4226 88.9487 89.1123 0.40928400000000004 9.27881e-06 0.0006791130000000001 -0.636602 -4.645730000000001e-06 -1.9811699999999998e-06 104.36399999999999 40.5023 -88.8246 -7.66903 0.186178 -1.3504399999999999 -11.2634 2.6253599999999975e-07 6.32082e-05 -79.2222 -21.7661 93.7907 5.58249 -41.3063 -21.4433 3.00695 42.8278 -1.8985699999999994 -1.1752899999999995 -0.06066769999999999 -2.3837 -91.1871 -87.8289 -89.9986 3.4088800000000004 -6.409830000000001e-06 0.00335005 -0.9548610000000001 -7.571189999999999e-06 -8.12769e-07 -91.1871 -89.4015 -89.9985 2.85637 -6.902189999999999e-06 0.0027684000000000003 -3.1684400000000004 4.57796e-06 9.70622e-07 88.8084 -89.7171 89.9969 2.54481 3.91696e-06 0.00243115 -2.54482 -9.43962e-07 1.3006599999999998e-06 -91.1883 -86.1973 -89.9998 6.1310400000000005 5.97828e-06 0.00656447 -2.04542 -8.5897e-06 -9.453839999999999e-07 -101.949 -40.7242 -90.0694 10.0172 2.68029e-06 -1.0966e-06 -2.6697599999999997 -3.2205e-06 -1.5019499999999999e-06 1.4798100000000005 -0.03482310000000011 0.0038869999999997518 -7.177169999999999 -0.031748099999999946 -0.0770133
-0.008890000000000953 0.02120000000000033 97.3685 -176.987 -89.883 -176.935 -171.00099999999998 2.83268 90.2869 -9.802 8.50602 3.3634699999999995 64.0058 0.676425 0.328488 28.7808 5.2385e-06 6.25729e-06 179.407 2.673490000000001 89.1396 -9.47177 -0.5107049999999997 -0.03703620000000002 63.6733 -1.2734 -0.6581139999999994 28.7808 1.426e-05 2.76483e-05 0.0171442 6.350169999999999 -90.1176 14.1736 0.014381799999999945 -0.011428800000000072 2.50265 0.013864299999999996 -0.01206560000000001 -20.0325 0.017157599999999995 -0.0065721999999999725 -0.01986610000000022 0.017152500000000015 -0.0065864500000000215 100.83 -18.8579 -85.4442 2.28852 40.4856 -28.1556 0.6812130000000001 0.3578530000000001 -5.7207599999999985 -5.37983 -0.3200129999999999 -0.016241700000000137 -89.4039 88.9709 89.0936 -0.060487400000000004 5.0253e-06 -7.258300000000001e-07 -0.0639215 2.5221e-06 -1.8519799999999999e-06 -89.3948 88.98100000000001 89.0846 -1.1574200000000001 -3.1712599999999998e-06 -2.17792e-07 2.576 -8.750089999999997e-07 -2.23622e-06 -88.8572 89.3579 88.54700000000001 -1.14578 2.42327e-06 0.000146885 1.1457700000000002 4.653870000000005e-07 -1.8543900000000001e-06 -89.4226 88.9487 89.1123 0.40928400000000004 9.27881e-06 0.0006791130000000001 -0.636602 -4.645730000000001e-06 -1.9811699999999998e-06 104.36399999999999 40.5023 -88.8246 -7.66903 0.186178 -1.3504399999999999 -11.2634 2.6253599999999975e-07 6.32082e-05 -79.2733 -21.7434 93.7 5.591709999999999 -41.2989 -21.3376 3.00385 42.7264 -1.8978499999999983 -1.0942800000000004 -0.06066449999999968 -2.4545200000000005 -91.1871 -87.8289 -89.9986 3.4088800000000004 -6.409830000000001e-06 0.00335005 -0.9548610000000001 -7.571189999999999e-06 -8.12769e-07 -91.1871 -89.4015 -89.9985 2.85637 -6.902189999999999e-06 0.0027684000000000003 -3.1684400000000004 4.57796e-06 9.70622e-07 88.8084 -89.7171 89.9969 2.54481 3.91696e-06 0.00243115 -2.54482 -9.43962e-07 1.3006599999999998e-06 -91.1883 -86.1973 -89.9998 6.1310400000000005 5.97828e-06 0.00656447 -2.04542 -8.5897e-06 -9.453839999999999e-07 -101.949 -40.7242 -90.0694 10.0172 2.68029e-06 -1.0966e-06 -2.6697599999999997 -3.2205e-06 -1.5019499999999999e-06 1.1841499999999998 -0.017518900000000004 0.04528540000000003 -6.9921299999999995 -0.0251224000000001 -0.11931900000000001
